<?xml version="1.0" standalone="no"?>
<svg xmlns:xlink="http://www.w3.org/1999/xlink" id="wave" style="transform:rotate(180deg); transition: 0.3s" viewBox="0 0 1440 310" version="1.1" xmlns="http://www.w3.org/2000/svg"><defs><linearGradient id="sw-gradient-0" x1="0" x2="0" y1="1" y2="0"><stop stop-color="rgba(203, 213, 225, 1)" offset="0%"/><stop stop-color="rgba(51, 65, 85, 1)" offset="100%"/></linearGradient></defs><path style="transform:translate(0, 0px); opacity:1" fill="url(#sw-gradient-0)" d="M0,279L17.1,258.3C34.3,238,69,196,103,149.8C137.1,103,171,52,206,41.3C240,31,274,62,309,103.3C342.9,145,377,196,411,201.5C445.7,207,480,165,514,134.3C548.6,103,583,83,617,62C651.4,41,686,21,720,36.2C754.3,52,789,103,823,118.8C857.1,134,891,114,926,108.5C960,103,994,114,1029,144.7C1062.9,176,1097,227,1131,222.2C1165.7,217,1200,155,1234,124C1268.6,93,1303,93,1337,93C1371.4,93,1406,93,1440,98.2C1474.3,103,1509,114,1543,144.7C1577.1,176,1611,227,1646,248C1680,269,1714,258,1749,258.3C1782.9,258,1817,269,1851,248C1885.7,227,1920,176,1954,139.5C1988.6,103,2023,83,2057,93C2091.4,103,2126,145,2160,180.8C2194.3,217,2229,248,2263,263.5C2297.1,279,2331,279,2366,268.7C2400,258,2434,238,2451,227.3L2468.6,217L2468.6,310L2451.4,310C2434.3,310,2400,310,2366,310C2331.4,310,2297,310,2263,310C2228.6,310,2194,310,2160,310C2125.7,310,2091,310,2057,310C2022.9,310,1989,310,1954,310C1920,310,1886,310,1851,310C1817.1,310,1783,310,1749,310C1714.3,310,1680,310,1646,310C1611.4,310,1577,310,1543,310C1508.6,310,1474,310,1440,310C1405.7,310,1371,310,1337,310C1302.9,310,1269,310,1234,310C1200,310,1166,310,1131,310C1097.1,310,1063,310,1029,310C994.3,310,960,310,926,310C891.4,310,857,310,823,310C788.6,310,754,310,720,310C685.7,310,651,310,617,310C582.9,310,549,310,514,310C480,310,446,310,411,310C377.1,310,343,310,309,310C274.3,310,240,310,206,310C171.4,310,137,310,103,310C68.6,310,34,310,17,310L0,310Z"/></svg>