<?xml version="1.0" standalone="no"?>
<svg xmlns:xlink="http://www.w3.org/1999/xlink" id="wave" style="transform:rotate(0deg); transition: 0.3s" viewBox="0 0 1440 230" version="1.1" xmlns="http://www.w3.org/2000/svg"><defs><linearGradient id="sw-gradient-0" x1="0" x2="0" y1="1" y2="0"><stop stop-color="rgba(51, 65, 89, 1)" offset="0%"/><stop stop-color="rgba(203, 213, 225, 1)" offset="100%"/></linearGradient></defs><path style="transform:translate(0, 0px); opacity:1" fill="url(#sw-gradient-0)" d="M0,207L14.1,191.7C28.2,176,56,146,85,111.2C112.9,77,141,38,169,30.7C197.6,23,226,46,254,65.2C282.4,84,311,100,339,111.2C367.1,123,395,130,424,115C451.8,100,480,61,508,38.3C536.5,15,565,8,593,15.3C621.2,23,649,46,678,53.7C705.9,61,734,54,762,65.2C790.6,77,819,107,847,107.3C875.3,107,904,77,932,76.7C960,77,988,107,1016,107.3C1044.7,107,1073,77,1101,65.2C1129.4,54,1158,61,1186,84.3C1214.1,107,1242,146,1271,168.7C1298.8,192,1327,199,1355,172.5C1383.5,146,1412,84,1440,72.8C1468.2,61,1496,100,1525,99.7C1552.9,100,1581,61,1609,61.3C1637.6,61,1666,100,1694,95.8C1722.4,92,1751,46,1779,53.7C1807.1,61,1835,123,1864,134.2C1891.8,146,1920,107,1948,99.7C1976.5,92,2005,115,2019,126.5L2032.9,138L2032.9,230L2018.8,230C2004.7,230,1976,230,1948,230C1920,230,1892,230,1864,230C1835.3,230,1807,230,1779,230C1750.6,230,1722,230,1694,230C1665.9,230,1638,230,1609,230C1581.2,230,1553,230,1525,230C1496.5,230,1468,230,1440,230C1411.8,230,1384,230,1355,230C1327.1,230,1299,230,1271,230C1242.4,230,1214,230,1186,230C1157.6,230,1129,230,1101,230C1072.9,230,1045,230,1016,230C988.2,230,960,230,932,230C903.5,230,875,230,847,230C818.8,230,791,230,762,230C734.1,230,706,230,678,230C649.4,230,621,230,593,230C564.7,230,536,230,508,230C480,230,452,230,424,230C395.3,230,367,230,339,230C310.6,230,282,230,254,230C225.9,230,198,230,169,230C141.2,230,113,230,85,230C56.5,230,28,230,14,230L0,230Z"/></svg>