<?xml version="1.0" standalone="no"?>
<svg xmlns:xlink="http://www.w3.org/1999/xlink" id="wave" style="transform:rotate(0deg); transition: 0.3s" viewBox="0 0 1440 190" version="1.1" xmlns="http://www.w3.org/2000/svg"><defs><linearGradient id="sw-gradient-0" x1="0" x2="0" y1="1" y2="0"><stop stop-color="rgba(51, 65, 87, 1)" offset="0%"/><stop stop-color="rgba(203, 213, 224, 1)" offset="100%"/></linearGradient></defs><path style="transform:translate(0, 0px); opacity:1" fill="url(#sw-gradient-0)" d="M0,171L14.1,171C28.2,171,56,171,85,171C112.9,171,141,171,169,164.7C197.6,158,226,146,254,120.3C282.4,95,311,57,339,47.5C367.1,38,395,57,424,82.3C451.8,108,480,139,508,148.8C536.5,158,565,146,593,123.5C621.2,101,649,70,678,47.5C705.9,25,734,13,762,12.7C790.6,13,819,25,847,50.7C875.3,76,904,114,932,117.2C960,120,988,89,1016,69.7C1044.7,51,1073,44,1101,63.3C1129.4,82,1158,127,1186,123.5C1214.1,120,1242,70,1271,69.7C1298.8,70,1327,120,1355,136.2C1383.5,152,1412,133,1440,126.7C1468.2,120,1496,127,1525,123.5C1552.9,120,1581,108,1609,101.3C1637.6,95,1666,95,1694,95C1722.4,95,1751,95,1779,85.5C1807.1,76,1835,57,1864,44.3C1891.8,32,1920,25,1948,44.3C1976.5,63,2005,108,2019,129.8L2032.9,152L2032.9,190L2018.8,190C2004.7,190,1976,190,1948,190C1920,190,1892,190,1864,190C1835.3,190,1807,190,1779,190C1750.6,190,1722,190,1694,190C1665.9,190,1638,190,1609,190C1581.2,190,1553,190,1525,190C1496.5,190,1468,190,1440,190C1411.8,190,1384,190,1355,190C1327.1,190,1299,190,1271,190C1242.4,190,1214,190,1186,190C1157.6,190,1129,190,1101,190C1072.9,190,1045,190,1016,190C988.2,190,960,190,932,190C903.5,190,875,190,847,190C818.8,190,791,190,762,190C734.1,190,706,190,678,190C649.4,190,621,190,593,190C564.7,190,536,190,508,190C480,190,452,190,424,190C395.3,190,367,190,339,190C310.6,190,282,190,254,190C225.9,190,198,190,169,190C141.2,190,113,190,85,190C56.5,190,28,190,14,190L0,190Z"/></svg>