<?xml version="1.0" standalone="no"?>
<svg xmlns:xlink="http://www.w3.org/1999/xlink" id="wave" style="transform:rotate(0deg); transition: 0.3s" viewBox="0 0 1440 100" version="1.1" xmlns="http://www.w3.org/2000/svg"><defs><linearGradient id="sw-gradient-0" x1="0" x2="0" y1="1" y2="0"><stop stop-color="rgba(51, 65, 87, 1)" offset="0%"/><stop stop-color="rgba(203, 213, 224, 1)" offset="100%"/></linearGradient></defs><path style="transform:translate(0, 0px); opacity:1" fill="url(#sw-gradient-0)" d="M0,90L14.1,90C28.2,90,56,90,85,90C112.9,90,141,90,169,86.7C197.6,83,226,77,254,63.3C282.4,50,311,30,339,25C367.1,20,395,30,424,43.3C451.8,57,480,73,508,78.3C536.5,83,565,77,593,65C621.2,53,649,37,678,25C705.9,13,734,7,762,6.7C790.6,7,819,13,847,26.7C875.3,40,904,60,932,61.7C960,63,988,47,1016,36.7C1044.7,27,1073,23,1101,33.3C1129.4,43,1158,67,1186,65C1214.1,63,1242,37,1271,36.7C1298.8,37,1327,63,1355,71.7C1383.5,80,1412,70,1440,66.7C1468.2,63,1496,67,1525,65C1552.9,63,1581,57,1609,53.3C1637.6,50,1666,50,1694,50C1722.4,50,1751,50,1779,45C1807.1,40,1835,30,1864,23.3C1891.8,17,1920,13,1948,23.3C1976.5,33,2005,57,2019,68.3L2032.9,80L2032.9,100L2018.8,100C2004.7,100,1976,100,1948,100C1920,100,1892,100,1864,100C1835.3,100,1807,100,1779,100C1750.6,100,1722,100,1694,100C1665.9,100,1638,100,1609,100C1581.2,100,1553,100,1525,100C1496.5,100,1468,100,1440,100C1411.8,100,1384,100,1355,100C1327.1,100,1299,100,1271,100C1242.4,100,1214,100,1186,100C1157.6,100,1129,100,1101,100C1072.9,100,1045,100,1016,100C988.2,100,960,100,932,100C903.5,100,875,100,847,100C818.8,100,791,100,762,100C734.1,100,706,100,678,100C649.4,100,621,100,593,100C564.7,100,536,100,508,100C480,100,452,100,424,100C395.3,100,367,100,339,100C310.6,100,282,100,254,100C225.9,100,198,100,169,100C141.2,100,113,100,85,100C56.5,100,28,100,14,100L0,100Z"/></svg>