<?xml version="1.0" standalone="no"?>
<svg xmlns:xlink="http://www.w3.org/1999/xlink" id="wave" style="transform:rotate(0deg); transition: 0.3s" viewBox="0 0 1440 230" version="1.1" xmlns="http://www.w3.org/2000/svg"><defs><linearGradient id="sw-gradient-0" x1="0" x2="0" y1="1" y2="0"><stop stop-color="rgba(51, 65, 85, 1)" offset="0%"/><stop stop-color="rgba(203, 213, 225, 1)" offset="100%"/></linearGradient></defs><path style="transform:translate(0, 0px); opacity:1" fill="url(#sw-gradient-0)" d="M0,207L14.1,191.7C28.2,176,56,146,85,111.2C112.9,77,141,38,169,30.7C197.6,23,226,46,254,76.7C282.4,107,311,146,339,149.5C367.1,153,395,123,424,99.7C451.8,77,480,61,508,46C536.5,31,565,15,593,26.8C621.2,38,649,77,678,88.2C705.9,100,734,84,762,80.5C790.6,77,819,84,847,107.3C875.3,130,904,169,932,164.8C960,161,988,115,1016,92C1044.7,69,1073,69,1101,69C1129.4,69,1158,69,1186,72.8C1214.1,77,1242,84,1271,107.3C1298.8,130,1327,169,1355,184C1383.5,199,1412,192,1440,191.7C1468.2,192,1496,199,1525,184C1552.9,169,1581,130,1609,103.5C1637.6,77,1666,61,1694,69C1722.4,77,1751,107,1779,134.2C1807.1,161,1835,184,1864,195.5C1891.8,207,1920,207,1948,199.3C1976.5,192,2005,176,2019,168.7L2032.9,161L2032.9,230L2018.8,230C2004.7,230,1976,230,1948,230C1920,230,1892,230,1864,230C1835.3,230,1807,230,1779,230C1750.6,230,1722,230,1694,230C1665.9,230,1638,230,1609,230C1581.2,230,1553,230,1525,230C1496.5,230,1468,230,1440,230C1411.8,230,1384,230,1355,230C1327.1,230,1299,230,1271,230C1242.4,230,1214,230,1186,230C1157.6,230,1129,230,1101,230C1072.9,230,1045,230,1016,230C988.2,230,960,230,932,230C903.5,230,875,230,847,230C818.8,230,791,230,762,230C734.1,230,706,230,678,230C649.4,230,621,230,593,230C564.7,230,536,230,508,230C480,230,452,230,424,230C395.3,230,367,230,339,230C310.6,230,282,230,254,230C225.9,230,198,230,169,230C141.2,230,113,230,85,230C56.5,230,28,230,14,230L0,230Z"/></svg>